# xmcd
#
# Track frame offsets: 
#        150
#        12705
#        28434
#        43464
#        63258
#        78696
#        96205
#        113855
#        130446
#        150767
#        168539
#
# Disc length: 2397 seconds
#
# Revision: 0
# Processed by: cddbd v1.5.2PL0 Copyright (c) Steve Scherf et al.
# Submitted via: ExactAudioCopy v0.95b4
#
DISCID=99095b0b
DTITLE=Claudia Hahn and Ralf Grosser - Claudia Hahn and Ralf Grosser
DYEAR=1989
DGENRE=rock
TTITLE0=Little Girl
TTITLE1=I´ve got music
TTITLE2=The pain of love
TTITLE3=For you
TTITLE4=Teenies and dreamers
TTITLE5=Five o´clock
TTITLE6=Don´t wana go
TTITLE7=Joseph
TTITLE8=I don´t believe
TTITLE9=Lullaby
TTITLE10=Crazy night
EXTD=
EXTT0=
EXTT1=
EXTT2=
EXTT3=
EXTT4=
EXTT5=
EXTT6=
EXTT7=
EXTT8=
EXTT9=
EXTT10=
PLAYORDER=
